<?xml version="1.0" encoding="utf-8"?>
<!-- Generator: Adobe Illustrator 26.5.0, SVG Export Plug-In . SVG Version: 6.00 Build 0)  -->
<svg version="1.1" id="Ebene_1" xmlns="http://www.w3.org/2000/svg" xmlns:xlink="http://www.w3.org/1999/xlink" x="0px" y="0px"
	 viewBox="0 0 100 100" style="enable-background:new 0 0 100 100;" xml:space="preserve">
<style type="text/css">
	.st0{fill:#01FFA9;}
	.st1{fill:#1D1D1B;}
</style>
<path class="st0" d="M45.1,32c-0.9,0.5-1.8,0.8-2.7,1.3c-0.3,0.2-0.5,0.5-0.6,0.8c-1.6,3.6-3.7,7-5.9,10.3c-0.6,0.9-1.4,1.7-2.3,2.4
	c-1.8,1.4-3.9,1-5.3-0.8c-0.8-1-1-2.3-1.1-3.5c-0.5-4-0.1-7.9,0.8-11.8c1-4.6,2.9-8.8,5.3-12.9c1.1-1.9,2.5-3.6,4.1-5.1
	c0.7-0.7,1.6-1.3,2.5-1.6c1.4-0.5,2.6-0.1,2.9,1.5c0.3,1.7,0,3.4-0.4,5c-0.1,0.3-0.1,0.6-0.3,0.8c-0.1,0.1-0.3,0.3-0.4,0.2
	c-0.1,0-0.2-0.2-0.3-0.4c0-0.1,0-0.3,0-0.4c0.5-1.5,0.3-3.1,0.3-4.6c0-0.2-0.1-0.4-0.2-0.6c-0.3-0.6-0.6-0.7-1.3-0.4
	c-0.5,0.3-1,0.5-1.4,0.9c-1.8,1.7-3.3,3.7-4.4,5.9c-0.8,1.5-1.6,3-2.3,4.5c-0.6,1.4-1.2,2.9-1.6,4.4c-0.6,1.9-1.1,3.8-1.4,5.8
	c-0.5,2.7-0.8,5.5-0.5,8.2c0.1,1,0.3,1.9,0.6,2.8c0.5,1.4,1.8,1.8,3.2,1c0.6-0.4,1.2-0.9,1.7-1.5c1.8-2.1,3.2-4.5,4.5-6.9
	c0.5-1,1-1.9,1.6-2.9c0,0-0.1-0.1-0.1-0.1c-0.4,0.1-0.8,0.2-1.2,0.4c-1.8,0.9-3.6,1.8-5.5,2.7c-0.3,0.1-0.6,0.2-0.8-0.1
	c-0.2-0.3,0-0.6,0.3-0.7c1-0.6,2-1.2,3-1.7c1.5-0.7,3.1-1.3,4.6-2.1c1.4-0.8,3-1.3,4.3-2.1c0.1-0.1,0.2-0.2,0.3-0.3
	c0.2-0.1,0.4-0.4,0.6-0.4c0.2,0,0.4,0.3,0.5,0.5c0.1,0.5,0.2,1.1,0.2,1.7c0,2.8,0,5.7,0.1,8.5c0,1.9,0.2,3.8,0.3,5.7
	c0,0.3,0.2,0.5,0.3,0.8c0.1,0,0.1,0,0.2,0c0.2-0.3,0.5-0.7,0.7-1c0.6-1.2,1.3-2.4,1.9-3.5c0.4-0.7,0.8-1.4,1.5-1.8
	c0.9-0.5,1.7-0.4,2.3,0.4c0.3,0.4,0.6,0.9,0.8,1.3c0.7,2.3,1.4,4.6,2,7c0.9,3.5,1.7,7,3,10.4c0.2,0.4,0.4,0.9,0.7,1.3
	c0.4,0.5,0.7,0.5,1-0.2c0.7-1.7,1.2-3.4,1.5-5.1c0.7-4.4,1.5-8.9,2.2-13.3c0.9-5.3,1.8-10.7,2.7-16c0.4-2.2,0.8-4.3,1.2-6.5
	c0.1-0.3,0.2-0.7,0.4-1c0.1-0.1,0.2-0.2,0.4-0.3c0.1,0.1,0.2,0.2,0.2,0.4c0,0.7,0,1.4-0.1,2c-0.4,2.2-0.8,4.4-1.2,6.6
	c-0.4,2.4-0.8,4.8-1.2,7.2c-0.7,4.2-1.4,8.5-2.2,12.7c-0.5,3-1,6.1-1.6,9.1c-0.3,1.3-0.6,2.7-1,4c-0.1,0.4-0.3,0.7-0.5,1
	c-0.6,1.1-1.9,1.2-2.7,0.2c-0.6-0.7-1.1-1.5-1.4-2.3c-0.9-2.7-1.8-5.5-2.6-8.2c-0.8-2.8-1.6-5.5-2.4-8.3c-0.1-0.3-0.2-0.5-0.3-0.8
	c-0.3-0.6-0.8-0.7-1.2-0.1c-0.3,0.4-0.5,0.8-0.7,1.3c-0.7,1.2-1.3,2.4-2,3.6c-0.2,0.4-0.5,0.7-0.8,1c-0.6,0.5-1.4,0.5-1.9-0.2
	c-0.3-0.3-0.5-0.8-0.5-1.2c-0.2-2-0.5-3.9-0.6-5.9c-0.1-2.9,0-5.8,0-8.7C45.1,32.4,45.1,32.2,45.1,32z"/>
<g>
	<path class="st1" d="M16.7,73.9h-0.9c0-0.2,0-0.4-0.1-0.6c-0.3,0.5-0.8,0.7-1.3,0.7c-1.4,0-1.9-1.3-1.9-3.5c0-2.5,0.8-3.5,2.3-3.5
		c1.8,0,1.9,1.6,2,2h-1.2c0-0.3-0.1-0.9-0.8-0.9c-0.8,0-1,1-1,2.5c0,1.6,0.2,2.4,1,2.4c0.6,0,0.8-0.5,0.8-1.5v-0.4h-0.9v-1h2.1V73.9
		z"/>
	<path class="st1" d="M21.1,70.9h-2.2v2h2.4l-0.1,1h-3.5v-6.8h3.5v1.1h-2.3v1.6h2.2V70.9z"/>
	<path class="st1" d="M22.1,73.9v-6.8h1.4c1.4,3.7,1.7,4.5,1.7,4.8h0c-0.1-0.8-0.1-1.8-0.1-2.9v-1.9h1.1v6.8h-1.3
		c-1.4-4-1.7-4.7-1.8-5h0c0,0.8,0.1,1.8,0.1,3v2H22.1z"/>
	<path class="st1" d="M28.3,68.2h-1.4v-1.1H31v1.1h-1.4v5.7h-1.2V68.2z"/>
	<path class="st1" d="M31.7,67.2h1.2v5.7h2.3l-0.1,1h-3.4V67.2z"/>
	<path class="st1" d="M39.2,70.9H37v2h2.4l-0.1,1h-3.5v-6.8h3.5v1.1H37v1.6h2.2V70.9z"/>
	<path class="st1" d="M42.9,73.9l-1.3-6.8h1.3c0.2,1.6,0.6,3.8,0.7,5.1h0c0.2-1.3,0.7-3.6,1-5.1h1.1c0.3,1.3,0.7,3.7,0.9,5h0
		c0.1-1.4,0.6-3.7,0.7-5h1.2l-1.4,6.8h-1.2c-0.3-1.4-0.7-3.5-0.9-4.8h0c-0.2,1.3-0.7,3.5-0.9,4.8H42.9z"/>
	<path class="st1" d="M52.5,70.9h-2.2v2h2.4l-0.1,1h-3.5v-6.8h3.5v1.1h-2.3v1.6h2.2V70.9z"/>
	<path class="st1" d="M53.4,67.2h2.1c1.2,0,1.8,0.7,1.8,1.7c0,0.9-0.4,1.3-0.8,1.4c0.5,0.2,1,0.6,1,1.7c0,1.3-0.8,2-2,2h-2V67.2z
		 M55.2,69.9c0.8,0,0.9-0.3,0.9-0.9c0-0.6-0.3-0.9-0.9-0.9h-0.6v1.7H55.2z M54.6,73h0.7c0.6,0,1-0.3,1-1.1c0-0.7-0.3-1.1-1.1-1.1
		h-0.6V73z"/>
	<path class="st1" d="M58.4,67.2h1.8c1.7,0,2.4,1.1,2.4,3.2c0,2.3-0.6,3.5-2.5,3.5h-1.7V67.2z M59.6,72.9H60c0.9,0,1.3-0.7,1.3-2.5
		c0-1.6-0.3-2.2-1.3-2.2h-0.4V72.9z"/>
	<path class="st1" d="M66.8,70.9h-2.2v2h2.4l-0.1,1h-3.5v-6.8h3.5v1.1h-2.3v1.6h2.2V70.9z"/>
	<path class="st1" d="M68.8,72c0.1,0.6,0.3,1.1,0.9,1.1c0.6,0,0.8-0.4,0.8-0.9c0-0.6-0.3-0.9-1.1-1.3c-1.2-0.6-1.6-1-1.6-2
		c0-1.1,0.7-1.8,1.9-1.8c1.5,0,1.9,1,1.9,1.9h-1.2c0-0.4-0.1-1-0.8-1c-0.5,0-0.7,0.3-0.7,0.8c0,0.5,0.2,0.7,1,1.1
		c1.2,0.6,1.8,1.1,1.8,2.2c0,1.1-0.7,1.9-2.1,1.9c-1.6,0-2-1-2.1-2H68.8z"/>
	<path class="st1" d="M73.8,67.2v6.8h-1.2v-6.8H73.8z"/>
	<path class="st1" d="M79,73.9h-0.9c0-0.2,0-0.4-0.1-0.6c-0.3,0.5-0.8,0.7-1.3,0.7c-1.4,0-1.9-1.3-1.9-3.5c0-2.5,0.8-3.5,2.3-3.5
		c1.8,0,1.9,1.6,2,2h-1.2c0-0.3-0.1-0.9-0.8-0.9c-0.8,0-1,1-1,2.5c0,1.6,0.2,2.4,1,2.4c0.6,0,0.8-0.5,0.8-1.5v-0.4h-0.9v-1H79V73.9z
		"/>
	<path class="st1" d="M80.1,73.9v-6.8h1.4c1.4,3.7,1.7,4.5,1.7,4.8h0c-0.1-0.8-0.1-1.8-0.1-2.9v-1.9h1.1v6.8h-1.3
		c-1.4-4-1.7-4.7-1.8-5h0c0.1,0.8,0.1,1.8,0.1,3v2H80.1z"/>
</g>
</svg>
