<?xml version="1.0" encoding="utf-8"?>
<svg version="1.1" id="Ebene_1" xmlns="http://www.w3.org/2000/svg" xmlns:xlink="http://www.w3.org/1999/xlink" x="0px" y="0px"
     viewBox="0 0 100 100" style="enable-background:new 0 0 100 100;" xml:space="preserve">
<style type="text/css">
	.st0{fill:#01FFA9;}
</style>

<path class="st0" d="M45.1,32c-0.9,0.5-1.8,0.8-2.7,1.3c-0.3,0.2-0.5,0.5-0.6,0.8c-1.6,3.6-3.7,7-5.9,10.3
	c-0.6,0.9-1.4,1.7-2.3,2.4c-1.8,1.4-3.9,1-5.3-0.8c-0.8-1-1-2.3-1.1-3.5c-0.5-4-0.1-7.9,0.8-11.8c1-4.6,2.9-8.8,5.3-12.9
	c1.1-1.9,2.5-3.6,4.1-5.1c0.7-0.7,1.6-1.3,2.5-1.6c1.4-0.5,2.6-0.1,2.9,1.5c0.3,1.7,0,3.4-0.4,5c-0.1,0.3-0.1,0.6-0.3,0.8
	c-0.1,0.1-0.3,0.3-0.4,0.2c-0.1,0-0.2-0.2-0.3-0.4c0-0.1,0-0.3,0-0.4c0.5-1.5,0.3-3.1,0.3-4.6c0-0.2-0.1-0.4-0.2-0.6
	c-0.3-0.6-0.6-0.7-1.3-0.4c-0.5,0.3-1,0.5-1.4,0.9c-1.8,1.7-3.3,3.7-4.4,5.9c-0.8,1.5-1.6,3-2.3,4.5c-0.6,1.4-1.2,2.9-1.6,4.4
	c-0.6,1.9-1.1,3.8-1.4,5.8c-0.5,2.7-0.8,5.5-0.5,8.2c0.1,1,0.3,1.9,0.6,2.8c0.5,1.4,1.8,1.8,3.2,1c0.6-0.4,1.2-0.9,1.7-1.5
	c1.8-2.1,3.2-4.5,4.5-6.9c0.5-1,1-1.9,1.6-2.9c0,0-0.1-0.1-0.1-0.1c-0.4,0.1-0.8,0.2-1.2,0.4c-1.8,0.9-3.6,1.8-5.5,2.7
	c-0.3,0.1-0.6,0.2-0.8-0.1c-0.2-0.3,0-0.6,0.3-0.7c1-0.6,2-1.2,3-1.7c1.5-0.7,3.1-1.3,4.6-2.1c1.4-0.8,3-1.3,4.3-2.1
	c0.1-0.1,0.2-0.2,0.3-0.3c0.2-0.1,0.4-0.4,0.6-0.4c0.2,0,0.4,0.3,0.5,0.5c0.1,0.5,0.2,1.1,0.2,1.7c0,2.8,0,5.7,0.1,8.5
	c0,1.9,0.2,3.8,0.3,5.7c0,0.3,0.2,0.5,0.3,0.8c0.1,0,0.1,0,0.2,0c0.2-0.3,0.5-0.7,0.7-1c0.6-1.2,1.3-2.4,1.9-3.5
	c0.4-0.7,0.8-1.4,1.5-1.8c0.9-0.5,1.7-0.4,2.3,0.4c0.3,0.4,0.6,0.9,0.8,1.3c0.7,2.3,1.4,4.6,2,7c0.9,3.5,1.7,7,3,10.4
	c0.2,0.4,0.4,0.9,0.7,1.3c0.4,0.5,0.7,0.5,1-0.2c0.7-1.7,1.2-3.4,1.5-5.1c0.7-4.4,1.5-8.9,2.2-13.3c0.9-5.3,1.8-10.7,2.7-16
	c0.4-2.2,0.8-4.3,1.2-6.5c0.1-0.3,0.2-0.7,0.4-1c0.1-0.1,0.2-0.2,0.4-0.3c0.1,0.1,0.2,0.2,0.2,0.4c0,0.7,0,1.4-0.1,2
	c-0.4,2.2-0.8,4.4-1.2,6.6c-0.4,2.4-0.8,4.8-1.2,7.2c-0.7,4.2-1.4,8.5-2.2,12.7c-0.5,3-1,6.1-1.6,9.1c-0.3,1.3-0.6,2.7-1,4
	c-0.1,0.4-0.3,0.7-0.5,1c-0.6,1.1-1.9,1.2-2.7,0.2c-0.6-0.7-1.1-1.5-1.4-2.3c-0.9-2.7-1.8-5.5-2.6-8.2c-0.8-2.8-1.6-5.5-2.4-8.3
	c-0.1-0.3-0.2-0.5-0.3-0.8c-0.3-0.6-0.8-0.7-1.2-0.1c-0.3,0.4-0.5,0.8-0.7,1.3c-0.7,1.2-1.3,2.4-2,3.6c-0.2,0.4-0.5,0.7-0.8,1
	c-0.6,0.5-1.4,0.5-1.9-0.2c-0.3-0.3-0.5-0.8-0.5-1.2c-0.2-2-0.5-3.9-0.6-5.9c-0.1-2.9,0-5.8,0-8.7C45.1,32.4,45.1,32.2,45.1,32z"/>

</svg>
